<?xml version="1.0" standalone="no"?>
<!DOCTYPE svg PUBLIC "-//W3C//DTD SVG 1.1//EN" "http://www.w3.org/Graphics/SVG/1.1/DTD/svg11.dtd">
<svg t="1710600285941" class="icon" viewBox="0 0 1024 1024" version="1.1" xmlns="http://www.w3.org/2000/svg" p-id="15337" xmlns:xlink="http://www.w3.org/1999/xlink"><path d="M894.5 118.25h-123.75V95.75c0-16.875-16.875-33.75-33.75-33.75s-33.75 16.875-33.75 33.75V118.25H326.375V95.75c0-16.875-16.875-33.75-33.75-33.75s-33.75 16.875-33.75 33.75V118.25H129.5C95.75 118.25 62 146.375 62 185.75v703.125c0 39.375 33.75 73.125 67.5 73.125h759.375c39.375 0 67.5-33.75 67.5-67.5V185.75c5.625-39.375-28.125-67.5-61.875-67.5z m0 776.25H129.5v-562.5h759.375v562.5z m0-635.625H129.5V185.75h123.75v5.625c0 16.875 16.875 33.75 33.75 33.75s33.75-16.875 33.75-33.75v-5.625h371.25v5.625c0 16.875 16.875 33.75 33.75 33.75s33.75-16.875 33.75-33.75v-5.625h123.75v73.125z" p-id="15338"></path><path d="M292.625 568.25h67.5c22.5 0 39.375-16.875 39.375-33.75s-16.875-39.375-33.75-39.375H292.625c-16.875 0-33.75 16.875-33.75 39.375s16.875 33.75 33.75 33.75zM478.25 568.25h67.5c22.5 0 33.75-16.875 33.75-33.75s-11.25-39.375-33.75-39.375H478.25c-22.5 0-33.75 16.875-33.75 39.375s11.25 33.75 33.75 33.75zM658.25 568.25h67.5c16.875 0 33.75-16.875 33.75-33.75s-16.875-33.75-33.75-33.75h-67.5c-16.875-5.625-33.75 11.25-33.75 33.75s16.875 33.75 33.75 33.75zM292.625 753.875h67.5c22.5 0 39.375-16.875 39.375-39.375s-16.875-33.75-33.75-33.75H292.625c-16.875 0-33.75 16.875-33.75 33.75s16.875 39.375 33.75 39.375zM478.25 753.875h67.5c16.875 0 33.75-16.875 33.75-33.75S568.25 680.75 545.75 680.75H478.25c-16.875 0-33.75 16.875-33.75 33.75s11.25 39.375 33.75 39.375z" p-id="15339"></path></svg>