<?xml version="1.0" standalone="no"?>
<!DOCTYPE svg PUBLIC "-//W3C//DTD SVG 1.1//EN" "http://www.w3.org/Graphics/SVG/1.1/DTD/svg11.dtd">
<svg t="1706935658812" class="icon" viewBox="0 0 1024 1024" version="1.1" xmlns="http://www.w3.org/2000/svg" p-id="8545"
    width="16" height="16" xmlns:xlink="http://www.w3.org/1999/xlink">
    <path
        d="M511.962229 0c-125.39306 0-246.956943 53.258558-335.877839 127.95251V63.976255c0-60.936908-79.972818-60.936908-79.972818 0v175.9422c0 24.314776 23.674914 47.979692 47.979691 47.979692H320.033463c60.936908 0 60.936908-79.972818 0-79.972818h-95.969381C298.758034 139.789967 402.885663 79.972818 511.962229 79.972818c232.080139 0 431.84722 199.607116 431.84722 431.847221S744.042368 943.667259 511.962229 943.667259C279.722124 943.667259 96.271537 744.060143 96.111572 511.820039v-15.996564c-47.339829-64.296186-89.570756-10.2378-95.969382 0-0.319931 6.23866 0 9.757904 0 15.996564 0 282.619281 229.040792 511.820039 511.820039 511.820038 282.619281 0 511.820039-229.200758 511.820038-511.820038S794.58151 0 511.962229 0z"
        fill="context-fill" p-id="8546"></path>
    <path
        d="M447.826008 318.921482V559.799731c0 46.699967 22.71512 62.856496 41.261135 69.25512l148.588077 67.975396c65.735877 32.313058 92.610103-61.896702 32.632989-75.653746L543.795389 559.799731V319.881276c0-62.69653-95.969382-63.656324-95.969381-0.959794z"
        fill="context-fill" p-id="8547"></path>
</svg>