<?xml version="1.0" standalone="no"?>
<!DOCTYPE svg PUBLIC "-//W3C//DTD SVG 1.1//EN" "http://www.w3.org/Graphics/SVG/1.1/DTD/svg11.dtd">
<svg t="1710600171260" class="icon" viewBox="0 0 1024 1024" version="1.1" xmlns="http://www.w3.org/2000/svg" p-id="12563" xmlns:xlink="http://www.w3.org/1999/xlink"><path d="M948.224 221.184l-73.728-12.288v-51.2c0-13.312-7.168-26.624-18.432-33.792-11.264-7.168-25.6-9.216-37.888-4.096l-307.2 122.88-307.2-122.88c-12.288-5.12-26.624-3.072-37.888 4.096s-18.432 20.48-18.432 33.792v51.2l-73.728 12.288c-18.432 4.096-32.768 20.48-32.768 40.96v561.152c0 21.504 16.384 38.912 36.864 40.96l430.08 43.008h8.192l430.08-43.008c20.48-2.048 36.864-19.456 36.864-40.96V262.144c0-20.48-14.336-36.864-34.816-40.96zM552.96 314.368l240.64-96.256v468.992L552.96 801.792V314.368z m-322.56-96.256L471.04 314.368v487.424L230.4 687.104V218.112zM122.88 295.936l25.6-4.096v420.864c0 15.36 9.216 29.696 23.552 36.864l109.568 52.224L122.88 786.432V295.936z m778.24 490.496l-158.72 15.36 109.568-52.224c14.336-7.168 23.552-21.504 23.552-36.864V291.84l25.6 4.096v490.496z" fill="#333C4F" p-id="12564"></path><path d="M713.728 362.496l-114.688 44.032c-21.504 8.192-31.744 31.744-23.552 53.248 6.144 16.384 21.504 26.624 37.888 26.624 5.12 0 10.24-1.024 14.336-3.072l114.688-44.032c21.504-8.192 31.744-31.744 23.552-53.248-7.168-21.504-30.72-31.744-52.224-23.552zM713.728 527.36l-114.688 44.032c-21.504 8.192-31.744 31.744-23.552 53.248 6.144 16.384 21.504 26.624 37.888 26.624 5.12 0 10.24-1.024 14.336-3.072L743.424 604.16c21.504-8.192 31.744-31.744 23.552-53.248-8.192-20.48-31.744-31.744-53.248-23.552zM422.912 405.504l-114.688-44.032c-21.504-8.192-45.056 2.048-53.248 23.552-8.192 21.504 2.048 45.056 23.552 53.248l114.688 44.032c5.12 2.048 10.24 3.072 14.336 3.072 16.384 0 31.744-10.24 37.888-26.624 9.216-21.504-2.048-45.056-22.528-53.248zM422.912 571.392l-114.688-44.032c-21.504-8.192-45.056 2.048-53.248 23.552-8.192 21.504 2.048 45.056 23.552 53.248l114.688 44.032c5.12 2.048 10.24 3.072 14.336 3.072 16.384 0 31.744-10.24 37.888-26.624 9.216-21.504-2.048-45.056-22.528-53.248z" fill="#333C4F" p-id="12565"></path></svg>