<?xml version="1.0" standalone="no"?>
<!DOCTYPE svg PUBLIC "-//W3C//DTD SVG 1.1//EN" "http://www.w3.org/Graphics/SVG/1.1/DTD/svg11.dtd">
<svg t="1710600020571" class="icon" viewBox="0 0 1024 1024" version="1.1" xmlns="http://www.w3.org/2000/svg" p-id="6931"
    xmlns:xlink="http://www.w3.org/1999/xlink">
    <path
        fill="context-fill"
        d="M810.666667 853.333333h-21.333334v-149.333333-1.28a32 32 0 0 0 0-4.693333 24.106667 24.106667 0 0 0 0-3.84c0-1.28 0-2.56-1.28-4.053334l-1.28-3.84-3.2-3.626666a40.106667 40.106667 0 0 0-2.56-3.84v-1.28l-128-165.76 128-165.76v-1.28a17.28 17.28 0 0 0 2.56-3.84l1.92-3.413334 1.28-3.84a29.653333 29.653333 0 0 0 1.28-4.053333 24.106667 24.106667 0 0 0 0-3.84 32 32 0 0 0 0-4.693333V170.666667h21.333334a42.666667 42.666667 0 0 0 0-85.333334H213.333333a42.666667 42.666667 0 0 0 0 85.333334h21.333334v150.613333a32 32 0 0 0 0 4.693333 24.106667 24.106667 0 0 0 0 3.84 29.653333 29.653333 0 0 0 1.28 4.053334l1.28 3.84 1.92 3.413333a17.28 17.28 0 0 0 2.56 3.84v1.28l128 165.76-128 165.76v1.28a40.106667 40.106667 0 0 0-2.56 3.84l-1.92 3.413333-1.28 3.84c0 1.493333 0 2.773333-1.28 4.053334a24.106667 24.106667 0 0 0 0 3.84 32 32 0 0 0 0 4.693333V853.333333h-21.333334a42.666667 42.666667 0 0 0 0 85.333334h597.333334a42.666667 42.666667 0 0 0 0-85.333334z m-490.666667-134.613333l140.373333-180.48a16 16 0 0 0 1.493334-2.56l2.56-3.84 1.706666-3.84 1.28-3.84c0-1.28 0-2.773333 1.066667-4.266667s0-2.346667 0-3.84v-11.946666c0-1.493333 0-2.986667-1.066667-4.266667l-1.28-3.84-1.706666-3.84-2.56-3.84a16 16 0 0 0-1.493334-2.56L320 305.28V170.666667h384v134.613333l-140.373333 180.48a16 16 0 0 0-1.493334 2.56l-2.56 3.84-1.706666 3.84-1.28 3.84c0 1.28 0 2.773333-1.066667 4.266667v15.786666c0 1.28 0 2.986667 1.066667 4.266667l1.28 3.84 1.706666 3.84 2.56 3.84a16 16 0 0 0 1.493334 2.56L704 718.72V853.333333H320z"
        p-id="6932"></path>
    <path
        fill="context-fill"
        d="M609.706667 772.693333l2.346666-3.413333 1.92-3.626667a27.733333 27.733333 0 0 0 1.706667-3.626666c0-1.493333 0-2.773333 1.28-4.053334s0-2.56 0-4.053333v-4.48c0-1.493333 1.706667-2.773333 1.706667-2.773333v-4.693334a21.333333 21.333333 0 0 0 0-3.626666l-1.28-4.053334c0-1.28 0-2.56-1.493334-4.053333a23.253333 23.253333 0 0 0-1.706666-3.2 42.666667 42.666667 0 0 0-2.56-4.053333l-64-85.333334-1.066667-1.066666a22.826667 22.826667 0 0 0-2.986667-3.413334l-3.2-2.986666-1.28-1.066667h-1.92l-4.053333-2.56-3.413333-1.493333-4.053334-1.493334-5.546666-4.906666h-16.213334l-4.053333 1.066666-3.84 1.493334-3.626667 1.493333-4.053333 2.56h-1.92l-1.28 1.066667-3.2 2.986666a22.826667 22.826667 0 0 0-2.986667 3.413334l-1.066666 1.066666-64 85.333334a42.666667 42.666667 0 0 0-2.56 4.053333 23.253333 23.253333 0 0 0-1.706667 3.2c0 1.493333-1.066667 2.773333-1.493333 4.053333l-1.28 4.053334a21.333333 21.333333 0 0 0 0 3.626666L405.333333 746.666667v11.306666c0 1.28 0 2.56 1.28 4.053334a27.733333 27.733333 0 0 0 1.706667 3.626666l1.92 3.626667 2.346667 3.413333 2.773333 3.2a22.826667 22.826667 0 0 0 3.413333 2.986667l1.92 1.92a46.08 46.08 0 0 0 10.666667 5.546667h2.346667A42.666667 42.666667 0 0 0 448 789.333333h128a42.666667 42.666667 0 0 0 11.733333-1.92h2.346667a46.08 46.08 0 0 0 10.666667-5.546666l1.92-1.92a22.826667 22.826667 0 0 0 3.413333-2.986667z"
        p-id="6933"></path>
</svg>