<?xml version="1.0" standalone="no"?>
<!DOCTYPE svg PUBLIC "-//W3C//DTD SVG 1.1//EN" "http://www.w3.org/Graphics/SVG/1.1/DTD/svg11.dtd">
<svg t="1710600370039" class="icon" viewBox="0 0 1024 1024" version="1.1" xmlns="http://www.w3.org/2000/svg" p-id="18301" xmlns:xlink="http://www.w3.org/1999/xlink"><path d="M803.84 604.16a101.0688 101.0688 0 0 0-43.4176 10.24L518.4512 417.6896A153.6 153.6 0 1 0 307.2 454.4512l-58.368 171.8272a110.1824 110.1824 0 0 0-18.432-1.6384 112.64 112.64 0 1 0 74.3424 28.16l59.6992-174.08a150.016 150.016 0 0 0 29.7984 2.56 151.9616 151.9616 0 0 0 78.336-21.7088l242.2784 196.5056A102.4 102.4 0 1 0 803.84 604.16z m-573.44 184.32a51.2 51.2 0 1 1 51.2-51.2 51.2 51.2 0 0 1-51.2 51.2z m71.68-460.8a92.16 92.16 0 1 1 163.0208 58.7776 30.72 30.72 0 0 0-25.6 21.4016A92.16 92.16 0 0 1 302.08 327.68z m501.76 419.84a40.96 40.96 0 0 1-40.96-40.96 39.5264 39.5264 0 0 1 3.1744-15.5648h2.9696a30.72 30.72 0 0 0 29.696-24.8832 34.9184 34.9184 0 0 1 4.7104 0 40.96 40.96 0 0 1 0 81.92z" p-id="18302"></path></svg>