<?xml version="1.0" encoding="UTF-8"?>
<svg id="_图层_1" data-name="图层 1" xmlns="http://www.w3.org/2000/svg" viewBox="0 0 512 512" width="20" height="20">
  <defs>
    <style>
      .cls-1 {
        fill: #ec6819;
      }
      .cls-2 {
        opacity: 0;
      }
    </style>
  </defs>
  <path class="cls-1" d="M512,222.53v67.88c-.29,2.26-.8,4.53-.84,6.79-.59,31.24-2.61,62.38-7.22,93.31-2.92,19.53-7.05,38.75-13.86,57.4-7.65,20.94-21.87,34.59-42.75,42.19-23.13,8.42-47.04,13.42-71.37,15.56-30.47,2.67-61.09,3.75-91.64,5.44-7.76.43-15.54.61-23.31.9h-57c-10.08-.67-20.16-1.44-30.24-1.99-27.61-1.5-54.85-5.27-81.96-10.89-35.96-7.46-59.72-27.59-71.61-62.44-10.55-30.9-15.44-62.74-18.14-95.06C1.32,332.87.68,324.11,0,315.36c0-39.93,0-79.85,0-119.78.29-1.45.73-2.88.84-4.34.76-10.43,1.32-20.89,2.21-31.31,2.27-26.52,7.06-52.54,15.03-78.01C29.29,46.08,51.43,22.78,89.35,14.49,122.68,7.19,156.27,3.27,190.21,2.12c24.28-.82,48.61-.42,72.92-.46,39.98-.07,79.91,1.11,119.6,6.39,22.76,3.03,45.23,7.33,66.77,15.73,18.88,7.36,32.85,19.64,39.37,38.99,4.64,13.78,9.05,27.77,11.9,42,7.23,36.09,9.54,72.73,10.36,109.48.06,2.77.56,5.52.86,8.28ZM270.25,484.86v-6.2c0-27.28-.02-54.56,0-81.84.01-13.08,7.31-20.28,20.5-20.31,10-.03,20-.02,30,0,13.44.03,20.34,6.86,20.34,20.21.02,26.61,0,53.23,0,79.84v5.85c8.02-.77,15.29-2,22.57-2,5.79,0,6.59-2.31,6.58-7.4-.17-60.72-.12-121.43-.1-182.15,0-12.34,7.15-19.58,19.44-19.68,10.67-.09,21.33-.06,32,0,12.54.06,19.39,6.96,19.39,19.47,0,55.89,0,111.79,0,167.68v5.64c12.7-4.12,19.65-13.1,24.07-24.6,9.09-23.65,12.51-48.52,14.76-73.46,2.38-26.3,3.99-52.72,4.76-79.11,1.59-54.73-.19-109.38-7.67-163.7-2.42-17.57-5.85-34.98-12.71-51.55-4.53-10.94-11.92-18.95-23.05-22.73-11.29-3.84-22.75-7.49-34.42-9.85-38.98-7.87-78.59-9.86-118.22-10.67-44.3-.91-88.62-1.67-132.85,2.46-22.22,2.07-44.28,4.92-65.77,11.13-14.67,4.24-28.78,9.92-35.82,24.68-5.47,11.46-9.77,23.5-14.03,35.49-2.13,5.99-2.99,12.43-4.27,17.98,105.15-14.11,187.32,24.66,252.75,104.81,1.02-2.33,2.35-5.48,3.76-8.6,15.58-34.43,38.67-61.47,74.96-75.34,2.69-1.03,2.95-2.59,2.93-4.91-.06-8.98.01-17.97-.04-26.95-.03-5.87,2.2-10.46,7.68-12.84,5.55-2.41,10.25-.65,14.42,3.55,14.45,14.51,29.01,28.9,43.51,43.37,7.49,7.47,7.52,13.59.07,21.02-14.25,14.23-28.6,28.38-42.8,42.67-4.37,4.4-9.21,6.83-15.2,4.2-5.86-2.58-7.84-7.61-7.72-13.84.18-9.27.05-18.54.05-28.36-1.75.77-2.96,1.22-4.08,1.82-20.43,10.91-34.52,27.78-45.21,47.87-10.81,20.32-15.85,42.48-20.9,64.65-1.81,7.96-3.71,15.9-5.57,23.84-2.42-3.97-3.78-7.87-5.32-11.71-6.18-15.37-11.23-31.35-18.89-45.95-14.96-28.53-38.44-49.46-65.26-66.69-36.18-23.24-75.36-37.73-118.8-39.15-17.39-.57-34.59.79-51.29,6.04-1.51.47-3.58,2.2-3.71,3.52-1.26,12.23-2.7,24.48-3.04,36.75-.73,26.43-.97,52.87-1.18,79.31-.34,44.78,1.58,89.39,11.05,133.35,3.72,17.27,8.72,34.17,19.23,48.73,3.27,4.53,7.82,8.15,11.78,12.19.49-.34.98-.68,1.48-1.02v-5.87c0-48.91,0-97.81,0-146.72,0-15.3-.1-30.61.04-45.91.1-11.95,7.57-19.22,19.46-19.27,9.83-.04,19.7.54,29.49-.15,12.4-.87,22.16,6.87,22.06,21.88-.44,69.2-.2,138.4-.19,207.6,0,1.5-.19,3.04.11,4.47.2.94,1.05,2.4,1.73,2.48,8.87.98,17.76,1.76,27.3,2.65,0-2.93,0-5.04,0-7.15,0-41.25-.03-82.51.02-123.76.01-12.96,7.22-20.09,20.1-20.12,10-.02,20-.01,30,0,13.71.01,20.55,6.81,20.55,20.49,0,41.92,0,83.84,0,125.76,0,1.95,0,3.91,0,6.14h29.14Z"/>
  <path class="cls-2" d="M512,222.53c-.3-2.76-.8-5.52-.86-8.28-.82-36.74-3.14-73.39-10.36-109.48-2.85-14.23-7.26-28.22-11.9-42-6.52-19.36-20.49-31.63-39.37-38.99-21.54-8.4-44.01-12.7-66.77-15.73-39.69-5.28-79.62-6.46-119.6-6.39-24.31.04-48.64-.36-72.92.46-33.94,1.15-67.53,5.07-100.86,12.37C51.43,22.78,29.29,46.08,18.07,81.92c-7.97,25.47-12.76,51.49-15.03,78.01-.89,10.42-1.44,20.88-2.21,31.31-.11,1.46-.55,2.89-.84,4.34C0,130.4,0,65.22,0,0h512v222.53Z"/>
  <path class="cls-2" d="M261,512c7.77-.29,15.55-.47,23.31-.9,30.56-1.7,61.17-2.77,91.64-5.44,24.33-2.13,48.24-7.13,71.37-15.56,20.88-7.61,35.1-21.25,42.75-42.19,6.81-18.65,10.95-37.86,13.86-57.4,4.62-30.93,6.63-62.06,7.22-93.31.04-2.27.55-4.53.84-6.79v221.59h-251Z"/>
  <path class="cls-2" d="M0,315.36c.68,8.75,1.32,17.51,2.05,26.26,2.7,32.32,7.59,64.15,18.14,95.06,11.89,34.85,35.65,54.98,71.61,62.44,27.11,5.62,54.35,9.39,81.96,10.89,10.09.55,20.16,1.32,30.24,1.99H0C0,446.45,0,380.91,0,315.36Z"/>
  <path class="cls-2" d="M270.25,484.86h-29.14c0-2.23,0-4.18,0-6.14,0-41.92,0-83.84,0-125.76,0-13.68-6.84-20.48-20.55-20.49-10,0-20-.02-30,0-12.88.03-20.09,7.16-20.1,20.12-.05,41.25-.02,82.51-.02,123.76,0,2.11,0,4.22,0,7.15-9.55-.89-18.44-1.67-27.3-2.65-.69-.08-1.54-1.54-1.73-2.48-.3-1.44-.11-2.98-.11-4.47,0-69.2-.25-138.4.19-207.6.1-15.01-9.66-22.74-22.06-21.88-9.78.68-19.66.11-29.49.15-11.9.05-19.36,7.32-19.46,19.27-.13,15.3-.03,30.61-.04,45.91,0,48.91,0,97.81,0,146.72v5.87c-.49.34-.98.68-1.48,1.02-3.96-4.04-8.51-7.65-11.78-12.19-10.51-14.56-15.51-31.46-19.23-48.73-9.48-43.96-11.4-88.58-11.05-133.35.2-26.44.45-52.88,1.18-79.31.34-12.27,1.78-24.52,3.04-36.75.14-1.32,2.21-3.04,3.71-3.52,16.7-5.24,33.9-6.61,51.29-6.04,43.44,1.42,82.61,15.91,118.8,39.15,26.82,17.23,50.3,38.16,65.26,66.69,7.66,14.61,12.71,30.58,18.89,45.95,1.54,3.83,2.91,7.74,5.32,11.71,1.86-7.95,3.76-15.89,5.57-23.84,5.05-22.17,10.09-44.33,20.9-64.65,10.69-20.1,24.78-36.96,45.21-47.87,1.12-.6,2.33-1.04,4.08-1.82,0,9.82.13,19.09-.05,28.36-.12,6.23,1.86,11.27,7.72,13.84,5.99,2.63,10.83.2,15.2-4.2,14.2-14.29,28.54-28.43,42.8-42.67,7.45-7.44,7.41-13.56-.07-21.02-14.5-14.46-29.06-28.86-43.51-43.37-4.18-4.19-8.87-5.96-14.42-3.55-5.48,2.38-7.71,6.97-7.68,12.84.05,8.98-.03,17.97.04,26.95.02,2.32-.24,3.88-2.93,4.91-36.29,13.87-59.37,40.91-74.96,75.34-1.41,3.12-2.75,6.27-3.76,8.6-65.43-80.15-147.6-118.92-252.75-104.81,1.28-5.56,2.14-11.99,4.27-17.98,4.26-11.99,8.56-24.03,14.03-35.49,7.05-14.76,21.15-20.44,35.82-24.68,21.49-6.21,43.55-9.06,65.77-11.13,44.23-4.13,88.55-3.36,132.85-2.46,39.63.81,79.24,2.8,118.22,10.67,11.67,2.35,23.13,6.01,34.42,9.85,11.13,3.78,18.52,11.79,23.05,22.73,6.86,16.57,10.29,33.97,12.71,51.55,7.48,54.32,9.26,108.97,7.67,163.7-.76,26.4-2.38,52.81-4.76,79.11-2.26,24.94-5.67,49.81-14.76,73.46-4.42,11.5-11.37,20.48-24.07,24.6v-5.64c0-55.89,0-111.79,0-167.68,0-12.51-6.85-19.4-19.39-19.47-10.67-.05-21.33-.08-32,0-12.29.1-19.43,7.34-19.44,19.68-.02,60.72-.07,121.43.1,182.15.01,5.1-.79,7.4-6.58,7.4-7.27,0-14.55,1.23-22.57,2v-5.85c0-26.61.01-53.23,0-79.84,0-13.35-6.9-20.18-20.34-20.21-10-.02-20-.03-30,0-13.2.04-20.49,7.23-20.5,20.31-.03,27.28,0,54.56,0,81.84v6.2Z"/>
</svg>