<svg t="1693828005171" class="icon" viewBox="0 0 1024 1024" version="1.1" xmlns="http://www.w3.org/2000/svg" p-id="2821"
    xmlns:xlink="http://www.w3.org/1999/xlink" width="200" height="200" fill="red">
    <path
        d="M868.651707 416.593171l-201.403317-29.271415c-18.881561-2.697366-41.259707-18.981463-49.651512-36.06478L527.484878 168.73522c-8.391805-17.083317-22.278244-17.18322-30.670049 0l-90.311805 182.621658c-8.391805 17.083317-30.769951 33.267512-49.551609 35.964878L155.548098 416.593171c-18.781659 2.597463-23.077463 15.684683-9.39083 29.071609L291.715122 587.825951c13.586732 13.187122 22.078439 39.461463 18.881561 58.343025l-34.366439 200.30439c-3.196878 18.781659 7.992195 26.973659 24.875707 18.082341l180.224-94.707512c16.883512-8.891317 44.456585-8.891317 61.340098 0l180.024195 94.707512c16.883512 8.891317 28.072585 0.699317 24.875707-18.082341l-34.466341-200.504195c-2.997073-18.881561 5.494634-45.155902 19.081366-58.343025l145.857561-141.961366c13.686634-13.287024 9.490732-26.374244-9.39083-29.071609z"
        p-id="2822"></path>
    <path
        d="M973.549268 399.809561c-11.288976-34.466341-41.35961-58.343024-80.621268-64.037463l-203.900878-29.671025-91.210927-185.019317c-17.283122-34.965854-50.250927-56.744585-85.916097-56.744585-35.864976 0-68.732878 21.778732-85.916098 56.844488l-91.210927 184.919414-203.800975 29.571122c-39.161756 5.694439-69.332293 29.671024-80.621269 64.137366-11.089171 34.466341-0.899122 71.530146 27.573073 99.103219l147.555903 143.959415L190.813659 845.973854c-5.294829 30.869854 1.898146 59.841561 20.380097 81.820097 17.18322 20.180293 42.558439 31.768976 69.332293 31.768976 16.683707 0 33.267512-4.295805 49.152-12.68761l182.421853-95.906341 182.421854 96.006244c15.98439 8.291902 32.468293 12.587707 49.052098 12.587707 26.973659 0 52.248976-11.588683 69.432195-31.868878 18.282146-21.778732 25.575024-50.650537 20.280195-81.720195l-34.865951-203.001756 147.655805-143.859513c28.372293-27.672976 38.662244-64.73678 27.47317-99.303024z m-54.746536 71.330341L767.650341 618.496c-4.89522 4.795317-9.590634 19.281171-8.391804 26.174439l35.765073 207.896976c3.29678 19.381073-0.699317 37.063805-11.588683 49.951219-9.790439 11.388878-24.076488 18.082341-39.661268 18.082342-10.090146 0-20.679805-2.697366-31.069659-8.192l-186.817561-98.403903c-1.498537-0.699317-6.393756-2.397659-13.586732-2.397658-7.192976 0-12.088195 1.598439-13.586731 2.397658l-186.817561 98.403903c-10.389854 5.394732-20.87961 8.192-31.069659 8.192-15.58478 0-29.870829-6.693463-39.661268-18.082342-10.889366-12.887415-14.985366-30.570146-11.788488-49.951219l35.765073-208.096781c1.098927-6.893268-3.496585-21.179317-8.391805-25.874732L105.297171 471.04c-17.582829-17.083317-24.076488-39.161756-17.682732-59.242146 6.593561-19.980488 24.875707-34.066732 49.052098-37.563317L345.662439 343.864195c6.793366-0.999024 19.081366-9.790439 21.978537-15.98439l93.508683-189.315122c10.789463-21.978537 29.770927-35.065756 50.950243-35.065756 20.979512 0 40.060878 13.08722 50.950244 35.065756l93.408781 189.315122c3.096976 6.193951 15.185171 15.085268 22.078439 16.084293l208.995902 30.370341c24.17639 3.496585 42.558439 17.582829 49.052098 37.563317 6.393756 19.980488-0.199805 42.158829-17.782634 59.242146z"
        p-id="2823"></path>
</svg>