<?xml version="1.0" standalone="no"?>
<!DOCTYPE svg PUBLIC "-//W3C//DTD SVG 1.1//EN" "http://www.w3.org/Graphics/SVG/1.1/DTD/svg11.dtd">
<svg t="1710600388020" class="icon" viewBox="0 0 1024 1024" version="1.1" xmlns="http://www.w3.org/2000/svg"
    p-id="19324" xmlns:xlink="http://www.w3.org/1999/xlink">
    <path
        d="M271.36 276.48c0-61.44-40.96-113.664-97.28-130.048V38.4C174.08 17.408 156.672 0 135.68 0S97.28 17.408 97.28 38.4v108.032C40.96 162.816 0 215.04 0 276.48c0 61.44 41.472 113.664 97.792 130.048l1.536 209.92C41.984 632.832 0 685.056 0 747.52c0 61.44 40.96 113.664 97.28 130.048V983.04c0 20.992 17.408 38.4 38.4 38.4s38.4-17.408 38.4-38.4v-105.472c56.32-16.384 97.28-68.608 97.28-130.048 0-60.928-39.936-112.128-95.232-129.536l-1.536-211.456C230.4 389.632 271.36 337.92 271.36 276.48z m-194.56 0c0-32.256 26.624-58.88 58.88-58.88S194.56 244.224 194.56 276.48s-26.624 58.88-58.88 58.88S76.8 308.736 76.8 276.48z m117.76 471.04c0 32.256-26.624 58.88-58.88 58.88S76.8 779.776 76.8 747.52s26.624-58.88 58.88-58.88S194.56 715.264 194.56 747.52zM924.16 97.28h-496.64C372.224 97.28 327.68 141.824 327.68 197.12v158.72C327.68 411.136 372.224 455.68 427.52 455.68h496.64c55.296 0 99.84-44.544 99.84-99.84v-158.72c0-55.296-44.544-99.84-99.84-99.84z m23.04 258.56c0 12.8-10.24 23.04-23.04 23.04h-496.64C414.72 378.88 404.48 368.64 404.48 355.84v-158.72c0-12.8 10.24-23.04 23.04-23.04h496.64c12.8 0 23.04 10.24 23.04 23.04v158.72zM924.16 568.32h-496.64c-55.296 0-99.84 44.544-99.84 99.84v158.72c0 55.296 44.544 99.84 99.84 99.84h496.64c55.296 0 99.84-44.544 99.84-99.84v-158.72c0-55.296-44.544-99.84-99.84-99.84z m23.04 258.56c0 12.8-10.24 23.04-23.04 23.04h-496.64c-12.8 0-23.04-10.24-23.04-23.04v-158.72c0-12.8 10.24-23.04 23.04-23.04h496.64c12.8 0 23.04 10.24 23.04 23.04v158.72z"
        fill="context-fill" p-id="19325"></path>
</svg>